<svg width="1200" height="675" viewBox="0 0 1200 675" xmlns="http://www.w3.org/2000/svg">
  <defs>
    <radialGradient id="bg" cx="38%" cy="30%" r="90%">
      <stop offset="0%" stop-color="#1A1230"/>
      <stop offset="100%" stop-color="#0E091C"/>
    </radialGradient>
  </defs>
  <rect width="1200" height="675" fill="url(#bg)"/>
  <rect x="0" y="668" width="1200" height="7" fill="#6E54FF"/>

  <text x="80" y="84" font-family="Schibsted Grotesk" font-weight="500" font-size="32"
    letter-spacing="9" fill="#FFFFFF">BUILD NOTHING</text>
  <text x="80" y="114" font-family="Roboto Mono" font-size="15" letter-spacing="3"
    fill="#7C6DB0">/ A VOW OF ABSTINENCE FROM VIBECODING · WITNESSED ON MONAD</text>

  <rect x="82" y="148" width="40" height="40" rx="7" fill="#DDD7FE" opacity="0.66"/><rect x="82" y="197" width="40" height="40" rx="7" fill="#DDD7FE" opacity="0.69"/><rect x="82" y="246" width="40" height="40" rx="7" fill="#DDD7FE" opacity="0.71"/><rect x="82" y="295" width="40" height="40" rx="7" fill="#DDD7FE" opacity="0.74"/><rect x="82" y="344" width="40" height="40" rx="7" fill="#DDD7FE" opacity="0.76"/><rect x="82" y="393" width="40" height="40" rx="7" fill="#D97757"/>
    <path d="M 94 405 L 110 421 M 110 405 L 94 421"
      stroke="#0E091C" stroke-width="4.5" stroke-linecap="round"/><rect x="83.5" y="443.5" width="37" height="37" rx="7"
      fill="none" stroke="#2A2046" stroke-width="2.5"/><rect x="132.5" y="149.5" width="37" height="37" rx="7"
      fill="none" stroke="#2A2046" stroke-width="2.5"/><rect x="132.5" y="198.5" width="37" height="37" rx="7"
      fill="none" stroke="#2A2046" stroke-width="2.5"/><rect x="132.5" y="247.5" width="37" height="37" rx="7"
      fill="none" stroke="#2A2046" stroke-width="2.5"/><rect x="132.5" y="296.5" width="37" height="37" rx="7"
      fill="none" stroke="#2A2046" stroke-width="2.5"/><rect x="132.5" y="345.5" width="37" height="37" rx="7"
      fill="none" stroke="#2A2046" stroke-width="2.5"/><rect x="132.5" y="394.5" width="37" height="37" rx="7"
      fill="none" stroke="#2A2046" stroke-width="2.5"/><rect x="132.5" y="443.5" width="37" height="37" rx="7"
      fill="none" stroke="#2A2046" stroke-width="2.5"/>
  <text x="82" y="516" font-family="Roboto Mono" font-size="14"
    letter-spacing="2" fill="#7C6DB0">ABSTINENCE GRAPH · ONE CELL = ONE DAY WITHOUT CLAUDE CODE</text>

  <text x="80" y="588" font-family="Schibsted Grotesk" font-weight="600"
    font-size="60" fill="#FFFFFF">Lasted 123 hours</text>
  <text x="80" y="626" font-family="Roboto Mono" font-size="19"
    fill="#D97757">day 6: claude code session detected. the chain does not forget.</text>

  <g font-family="Roboto Mono" font-size="18" fill="#7C6DB0">
    <text x="1120" y="172" text-anchor="end">/ VOW #7</text>
    <text x="1120" y="204" text-anchor="end" fill="#FFAE45">/ 5 MON AT STAKE</text>
    <text x="1120" y="236" text-anchor="end">/ WEEKLY COHORT</text>
    <text x="1120" y="636" text-anchor="end" font-size="15">buildnothing.fun</text>
  </g>

  
  <g transform="translate(900 462) rotate(-6)" opacity="0.96">
    <rect x="-156.6" y="-42" width="313.2" height="84" fill="none" stroke="#D97757" stroke-width="5.5" rx="4"/>
    <rect x="-149.6" y="-35" width="299.2" height="70" fill="none" stroke="#D97757" stroke-width="1.5" rx="2" opacity="0.55"/>
    <text x="3" y="14.96" text-anchor="middle" font-family="Roboto Mono" font-weight="500"
      font-size="44" letter-spacing="6" fill="#D97757">RELAPSED</text>
  </g>
</svg>