<svg width="1200" height="675" viewBox="0 0 1200 675" xmlns="http://www.w3.org/2000/svg">
  <defs>
    <radialGradient id="bg" cx="38%" cy="30%" r="90%">
      <stop offset="0%" stop-color="#1A1230"/>
      <stop offset="100%" stop-color="#0E091C"/>
    </radialGradient>
  </defs>

  <rect width="1200" height="675" fill="url(#bg)"/>

  <!-- purple baseline rail: the chain, always under everything -->
  <rect x="0" y="668" width="1200" height="7" fill="#6E54FF"/>

  <!-- wordmark -->
  <text x="80" y="86" font-family="Inter" font-weight="500" font-size="34"
    letter-spacing="12" fill="#FFFFFF">BUILD NOTHING</text>
  <text x="80" y="116" font-family="Roboto Mono" font-size="16" letter-spacing="3"
    fill="#6E5FA3">/ A VOW OF ABSTINENCE FROM VIBECODING · WITNESSED ON MONAD</text>

  <!-- the count -->
  <path d="M 82.7 158.4
      C 83 186.8, 77 225.2, 77.7 254"
      stroke="#DDD7FE" stroke-width="9" stroke-linecap="round" fill="none"/><path d="M 103.2 157.5
      C 109 186.8, 103 225.2, 108.2 254"
      stroke="#DDD7FE" stroke-width="9" stroke-linecap="round" fill="none"/><path d="M 134.8 158.6
      C 135 186.8, 129 225.2, 129.9 254"
      stroke="#DDD7FE" stroke-width="9" stroke-linecap="round" fill="none"/><path d="M 155.2 157.3
      C 161 186.8, 155 225.2, 160 254"
      stroke="#DDD7FE" stroke-width="9" stroke-linecap="round" fill="none"/><path d="M 66 248 L 172 166"
      stroke="#DDD7FE" stroke-width="9" stroke-linecap="round" fill="none" opacity="0.95"/><path d="M 208.3 155.7
      C 211 186.8, 205 225.2, 205.2 254"
      stroke="#DDD7FE" stroke-width="9" stroke-linecap="round" fill="none"/><path d="M 233.6 160.3
      C 237 186.8, 231 225.2, 236.9 254"
      stroke="#DDD7FE" stroke-width="9" stroke-linecap="round" fill="none"/><path d="M 260.6 155.8
      C 263 186.8, 257 225.2, 257.1 254"
      stroke="#DDD7FE" stroke-width="9" stroke-linecap="round" fill="none"/><path d="M 285.3 160.1
      C 289 186.8, 283 225.2, 288.9 254"
      stroke="#DDD7FE" stroke-width="9" stroke-linecap="round" fill="none"/><path d="M 194 248 L 300 166"
      stroke="#DDD7FE" stroke-width="9" stroke-linecap="round" fill="none" opacity="0.95"/><path d="M 333.6 155.2
      C 339 186.8, 333 225.2, 335.3 254"
      stroke="#DDD7FE" stroke-width="9" stroke-linecap="round" fill="none"/><path d="M 364.3 160.9
      C 365 186.8, 359 225.2, 362.8 254"
      stroke="#DDD7FE" stroke-width="9" stroke-linecap="round" fill="none"/>

  

  <!-- tally caption -->
  <text x="82" y="280" font-family="Roboto Mono" font-size="15" letter-spacing="2" fill="#6E5FA3">DAYS, COUNTED ON THE WALL</text>

  <!-- headline -->
  <text x="80" y="556" font-family="Inter" font-weight="600"
    font-size="54" fill="#FFFFFF">I BUILT NOTHING FOR 288 HOURS</text>
  <text x="80" y="602" font-family="Roboto Mono" font-size="20"
    fill="#6E5FA3">12 days clean · every hour verified by a heartbeat I cannot fake</text>

  <!-- data column -->
  <g font-family="Roboto Mono" font-size="19" fill="#6E5FA3">
    <text x="1120" y="176" text-anchor="end">/ VOW #1</text>
    <text x="1120" y="210" text-anchor="end" fill="#FFAE45">/ 10 MON AT STAKE</text>
    <text x="1120" y="244" text-anchor="end">/ WEEKLY COHORT</text>
    <text x="1120" y="638" text-anchor="end" font-size="16">buildnothing.fun</text>
  </g>

  <!-- verdict stamp -->
  
  <g transform="translate(890 470) rotate(-7)" opacity="0.96">
    <rect x="-16" y="-50" width="195" height="84" fill="none" stroke="#85E6FF" stroke-width="6" rx="4"/>
    <rect x="-10" y="-44" width="183" height="72" fill="none" stroke="#85E6FF" stroke-width="1.5" rx="2" opacity="0.6"/>
    <text x="82.5" y="13" text-anchor="middle" font-family="Roboto Mono" font-weight="500"
      font-size="50" letter-spacing="8" fill="#85E6FF">CLEAN</text>
  </g>
</svg>